Results
version=1
nRows=14
nColumns=24
inDegrees=yes
endheader
time	pelvis_tilt	pelvis_list	pelvis_rotation	pelvis_tx	pelvis_ty	pelvis_tz	hip_flexion_r	hip_adduction_r	hip_rotation_r	knee_angle_r	ankle_angle_r	subtalar_angle_r	mtp_angle_r	hip_flexion_l	hip_adduction_l	hip_rotation_l	knee_angle_l	ankle_angle_l	subtalar_angle_l	mtp_angle_l	lumbar_extension	lumbar_bending	lumbar_rotation
      0.58800000	     -0.91741817	      6.83729845	     -2.84539800	     -0.83475573	      1.06171170	      0.34384514	     24.99326833	     -1.81585510	     -9.59862500	     -2.86080163	      0.66873443	      0.44749455	     -0.00062928	    -12.14582991	     12.66020112	      1.16368233	     -6.25767999	      5.73635940	     -6.90841684	     -0.23607596	      4.35749397	     -4.36487310	      0.77602526
      0.59216667	     -0.86834152	      6.85565229	     -2.94311220	     -0.82913045	      1.06135614	      0.34374982	     24.93905851	     -1.76463573	     -9.41060613	     -3.29385942	      0.74981129	      0.39487693	      0.00736896	    -12.31679900	     12.72179432	      1.26719551	     -6.64494005	      5.74103545	     -7.02951018	     -0.28928448	      4.34212600	     -4.29636159	      0.68379706
      0.59633333	     -0.83010256	      6.86436694	     -2.93176394	     -0.82344432	      1.06109220	      0.34356443	     24.85743302	     -1.74786790	     -9.27006775	     -3.71318756	      0.74751224	      0.35548644	      0.00971741	    -12.44043269	     12.74243582	      1.33182176	     -7.12602949	      5.70138807	     -7.05674510	     -0.30256304	      4.40539610	     -4.25096522	      0.66567772
      0.60050000	     -0.77128175	      6.92664502	     -3.04568840	     -0.81797326	      1.06075207	      0.34360881	     24.76722132	     -1.72488961	     -8.63847357	     -4.14045240	      0.88750076	     -0.17333628	      0.02537309	    -12.56520628	     12.83837051	      1.41090454	     -7.59327087	      5.57238088	     -7.28958011	     -0.40448262	      4.27668814	     -4.33455796	      0.55288128
      0.60466667	     -0.73245436	      6.91991264	     -3.06549807	     -0.81217765	      1.06050667	      0.34339750	     24.68040356	     -1.69594203	     -8.51309850	     -4.61219575	      0.82915953	     -0.23407421	      0.02701611	    -12.67555924	     12.85027007	      1.46942990	     -8.09697721	      5.51950022	     -7.28548805	     -0.41445472	      4.36490447	     -4.25456454	      0.53969283
      0.60883333	     -0.70099027	      6.95383632	     -3.21150880	     -0.80653941	      1.06017593	      0.34361286	     24.57934469	     -1.62194930	     -7.74567182	     -4.99205436	      0.59695707	     -1.03695976	      0.04481210	    -12.72666009	     12.90125208	      1.31522180	     -8.64568225	      5.28630218	     -7.27602546	     -0.50996289	      4.30869973	     -4.28623271	      0.47526855
      0.61300000	     -0.66015010	      6.94273731	     -3.22271357	     -0.80071775	      1.05998954	      0.34336426	     24.47152386	     -1.60471162	     -7.62271001	     -5.45655187	      0.54068214	     -1.07771085	      0.04680838	    -12.80224581	     12.90323323	      1.36445096	     -9.22335359	      5.24355854	     -7.25994821	     -0.51496462	      4.40190880	     -4.19498387	      0.46868569
      0.61716667	     -0.64769465	      6.94739766	     -3.36303257	     -0.79495376	      1.05970796	      0.34364873	     24.36244624	     -1.50450892	     -6.91888638	     -5.81720965	      0.13142296	     -1.82374515	      0.07009759	    -12.78834285	     12.90515124	      1.05076199	     -9.85255966	      5.01563288	     -6.94568684	     -0.56508199	      4.40445922	     -4.19570775	      0.45796364
      0.62133333	     -0.60501544	      6.92981308	     -3.36950329	     -0.78912630	      1.05959498	      0.34338269	     24.23008653	     -1.49383993	     -6.78334460	     -6.24614952	      0.06160632	     -1.86811774	      0.07347679	    -12.82025196	     12.89215645	      1.06976930	    -10.51372116	      4.96484122	     -6.91873348	     -0.56720207	      4.47391264	     -4.08228217	      0.45001332
      0.62550000	     -0.57468332	      6.87197909	     -3.48164721	     -0.78319021	      1.05946121	      0.34375695	     24.04065894	     -1.34039739	     -6.12558159	     -6.52294817	     -0.47922258	     -2.69429305	      0.11509312	    -12.78722655	     12.79557172	      0.60282880	    -11.23264320	      4.79271587	     -6.33681172	     -0.55986612	      4.48157365	     -4.01221402	      0.46865454
      0.62966667	     -0.52779301	      6.85818734	     -3.48185762	     -0.77739697	      1.05941723	      0.34347532	     23.89072816	     -1.35028651	     -6.00433921	     -6.92449751	     -0.57778129	     -2.70534021	      0.11896639	    -12.76814660	     12.77606122	      0.57174800	    -11.98431965	      4.70049622	     -6.30537482	     -0.55752127	      4.53879408	     -3.89297086	      0.45862474
      0.63383333	     -0.55880031	      6.80517584	     -3.54902976	     -0.77142792	      1.05928248	      0.34355807	     23.79650054	     -1.25778702	     -5.76292633	     -7.25662884	     -1.09173054	     -2.87022873	      0.13294208	    -12.62102690	     12.68714366	      0.14309402	    -12.79416881	      4.28252890	     -5.93967346	     -0.53655978	      4.43607278	     -3.72237722	      0.41546241
      0.63800000	     -0.47630708	      6.73388771	     -3.68366773	     -0.76546804	      1.05931759	      0.34378905	     23.56143673	     -1.13003381	     -5.36145753	     -7.53685165	     -1.71084909	     -3.35887449	      0.16245211	    -12.58397475	     12.58222921	     -0.31865911	    -13.60692648	      3.95306745	     -5.28416940	     -0.46688326	      4.58775027	     -3.61679514	      0.41082140
      0.64216667	     -0.44056680	      6.62906917	     -3.69775990	     -0.75945109	      1.05940774	      0.34403716	     23.31575148	     -0.99593332	     -4.93674188	     -7.73665369	     -2.22317460	     -3.96315697	      0.21868510	    -12.46504349	     12.38412220	     -0.76275731	    -14.52723041	      3.78694043	     -4.59968264	     -0.32076783	      4.62726182	     -3.51398526	      0.43768111
